HIERARCHY
ROOT Hips
{
    OFFSET 0.000000 0.000000 0.000000
    CHANNELS 6 Xposition Yposition Zposition Zrotation Xrotation Yrotation
    JOINT Chest
    {
        OFFSET -0.000000 0.078597 0.000000
        CHANNELS 3 Zrotation Xrotation Yrotation
        JOINT Chest2
        {
            OFFSET -0.000000 0.230468 0.000000
            CHANNELS 3 Zrotation Xrotation Yrotation
            JOINT Neck
            {
                OFFSET -0.000000 0.249638 0.000000
                CHANNELS 3 Zrotation Xrotation Yrotation
                JOINT Head
                {
                    OFFSET -0.000000 0.103998 0.019170
                    CHANNELS 3 Zrotation Xrotation Yrotation
                    End Site
                    {
                        OFFSET -0.000000 0.191701 0.000000
                    }
                }
            }
            JOINT LeftCollar
            {
                OFFSET 0.038274 0.205938 -0.001496
                CHANNELS 3 Zrotation Xrotation Yrotation
                JOINT LeftShoulder
                {
                    OFFSET 0.132388 0.000000 0.000000
                    CHANNELS 3 Zrotation Xrotation Yrotation
                    JOINT LeftElbow
                    {
                        OFFSET 0.250301 0.000000 0.000000
                        CHANNELS 3 Zrotation Xrotation Yrotation
                        JOINT LeftWrist
                        {
                            OFFSET 0.285291 0.000000 0.000000
                            CHANNELS 3 Zrotation Xrotation Yrotation
                            End Site
                            {
                                OFFSET 0.000000 -0.143776 0.000000
                            }
                        }
                    }
                }
            }
            JOINT RightCollar
            {
                OFFSET -0.038406 0.205938 -0.001496
                CHANNELS 3 Zrotation Xrotation Yrotation
                JOINT RightShoulder
                {
                    OFFSET -0.132388 0.000000 0.000000
                    CHANNELS 3 Zrotation Xrotation Yrotation
                    JOINT RightElbow
                    {
                        OFFSET -0.250301 0.000000 0.000000
                        CHANNELS 3 Zrotation Xrotation Yrotation
                        JOINT RightWrist
                        {
                            OFFSET -0.285291 0.000000 0.000000
                            CHANNELS 3 Zrotation Xrotation Yrotation
                            End Site
                            {
                                OFFSET -0.000000 -0.143776 0.000000
                            }
                        }
                    }
                }
            }
        }
    }
    JOINT LeftHip
    {
        OFFSET 0.095851 0.000000 0.000000
        CHANNELS 3 Zrotation Xrotation Yrotation
        JOINT LeftKnee
        {
            OFFSET -0.000000 -0.406444 0.000000
            CHANNELS 3 Zrotation Xrotation Yrotation
            JOINT LeftAnkle
            {
                OFFSET -0.000000 -0.408443 0.000000
                CHANNELS 3 Zrotation Xrotation Yrotation
                JOINT LeftToe
                {
                    OFFSET -0.000000 -0.062303 0.143776
                    CHANNELS 3 Zrotation Xrotation Yrotation
                    End Site
                    {
                        OFFSET -0.000000 0.000000 0.038340
                    }
                }
            }
        }
    }
    JOINT RightHip
    {
        OFFSET -0.095851 0.000000 0.000000
        CHANNELS 3 Zrotation Xrotation Yrotation
        JOINT RightKnee
        {
            OFFSET -0.000000 -0.406444 0.000000
            CHANNELS 3 Zrotation Xrotation Yrotation
            JOINT RightAnkle
            {
                OFFSET -0.000000 -0.408443 0.000000
                CHANNELS 3 Zrotation Xrotation Yrotation
                JOINT RightToe
                {
                    OFFSET -0.000000 -0.062303 0.143776
                    CHANNELS 3 Zrotation Xrotation Yrotation
                    End Site
                    {
                        OFFSET -0.000000 0.000000 0.038340
                    }
                }
            }
        }
    }
}
MOTION
Frames:    10
Frame Time:    0.016667
0.083736    0.901622    1.598938    -0.177323    1.103885    -175.591110    0.733465    -2.358579    -0.598664    -1.401531    0.391105    -0.199970    -0.699222    8.008521    0.482560    -2.572416    -2.076210    0.642389    11.482930    -0.763401    -3.996135    -17.502951    -0.720507    -10.905088    0.579602    -7.465582    -0.295335    93.915695    -4.557652    7.619977    -10.777833    -3.463823    4.070347    21.745012    -4.053398    3.049433    -2.829634    -0.014262    -1.384552    -91.292053    3.739050    -0.007043    4.525105    7.192892    0.139650    -1.205677    -1.572188    0.947012    -5.641118    -5.975905    13.556396    0.000000    0.000000    0.000000    -5.391810    8.376843    5.692716    1.178265    -8.321720    4.170332    4.133033    -1.102827    -15.658175    0.000000    0.000000    0.000000    
0.083753    0.901558    1.598761    -0.197331    1.128508    -175.605118    0.676138    -2.355514    -0.561300    -1.347557    0.424641    -0.187121    -0.696825    7.982469    0.480940    -2.562258    -2.063226    0.640433    11.441474    -1.078709    -4.050348    -17.533270    -0.396666    -10.747428    0.658512    -7.355510    -0.330597    93.894485    -4.524620    7.507541    -10.795460    -3.464742    4.039849    21.736385    -4.069878    3.014597    -2.789969    -0.054305    -1.425610    -91.324432    3.700000    -0.046721    4.505613    7.233514    0.136251    -1.202797    -1.574096    0.960764    -5.620107    -5.997112    13.554894    0.000000    0.000000    0.000000    -5.402966    8.368680    5.685423    1.181044    -8.337512    4.188319    4.089405    -0.945397    -15.534971    0.000000    0.000000    0.000000    
0.083734    0.901546    1.598644    -0.191831    1.125445    -175.619995    0.684325    -2.365957    -0.537050    -1.352627    0.410559    -0.179047    -0.657458    8.038353    0.500608    -2.594959    -2.090390    0.671525    11.427197    -0.873166    -4.035737    -17.431049    -0.551111    -10.819690    0.708602    -6.936129    -0.267181    92.810211    -4.471640    7.044232    -10.788074    -3.433311    4.026699    21.732431    -4.134612    3.002392    -2.734955    -0.123811    -1.430169    -91.499283    3.740601    -0.109161    4.499374    7.240496    0.134078    -1.187866    -1.572161    0.988246    -5.129307    -5.688433    13.648595    0.000000    0.000000    0.000000    -5.403656    8.373475    5.682333    1.188450    -8.346105    4.197814    4.014374    -0.840171    -15.320953    0.000000    0.000000    0.000000    
0.083754    0.901574    1.598545    -0.167783    1.109144    -175.612045    0.690918    -2.400652    -0.536128    -1.315826    0.407990    -0.179141    -0.779155    8.133964    0.551897    -2.394042    -2.171080    0.675043    11.398945    -0.838018    -4.030154    -17.497286    -0.519073    -10.855596    0.716396    -7.339285    -0.338980    93.517921    -4.469014    7.474492    -10.813395    -3.423356    4.017020    21.782009    -4.129519    3.048661    -2.769011    -0.181655    -1.533962    -91.263168    3.773962    -0.177373    4.529466    7.217858    0.113196    -1.195705    -1.551735    1.004396    -5.128712    -5.694952    13.644431    0.000000    0.000000    0.000000    -5.372093    8.362859    5.652741    1.179313    -8.339853    4.225049    4.043005    -0.842155    -15.343025    0.000000    0.000000    0.000000    
0.083712    0.901584    1.598394    -0.163966    1.111405    -175.616501    0.695624    -2.468902    -0.501754    -1.323605    0.509870    -0.166691    -0.723553    8.121334    0.543369    -2.415010    -2.187367    0.679577    11.450975    -0.883830    -4.053107    -17.559273    -0.542763    -10.878821    0.660381    -7.458846    -0.340826    93.580727    -4.649508    7.602310    -10.814027    -3.423705    3.981247    21.708267    -4.222805    3.061763    -2.590180    -0.188827    -1.624479    -91.245232    3.926803    -0.182978    4.527577    7.231205    0.103610    -1.187139    -1.556704    1.018400    -5.152324    -5.700424    13.651707    0.000000    0.000000    0.000000    -5.374417    8.365866    5.648293    1.192443    -8.323277    4.242490    4.085333    -0.931252    -15.543386    0.000000    0.000000    0.000000    
0.083604    0.901567    1.598283    -0.146801    1.125412    -175.590866    0.731235    -2.464226    -0.509902    -1.335990    0.495653    -0.169648    -0.737435    8.200737    0.572102    -2.376858    -2.260580    0.700113    11.430171    -0.884733    -4.066242    -17.511208    -0.649967    -10.840186    0.508151    -7.301884    -0.436824    93.337303    -4.667987    7.436028    -10.805281    -3.446694    3.973219    21.827190    -4.276194    3.019749    -2.786227    -0.097408    -1.526586    -91.282539    3.615851    -0.094545    4.540536    7.240952    0.058190    -1.181204    -1.545849    1.000517    -5.150719    -5.747323    13.676602    0.000000    0.000000    0.000000    -5.361433    8.395333    5.632648    1.194941    -8.331424    4.237988    4.204541    -1.001344    -15.529534    0.000000    0.000000    0.000000    
0.083551    0.901549    1.598157    -0.153215    1.125625    -175.578232    0.727587    -2.494015    -0.513565    -1.337904    0.513583    -0.170839    -0.698732    8.196249    0.574379    -2.453542    -2.170317    0.720843    11.495691    -0.642725    -4.001539    -17.628084    -0.922750    -11.039047    0.549455    -7.316108    -0.378098    93.138466    -5.056579    7.452926    -10.801422    -3.475646    3.987136    21.839462    -4.167783    3.042777    -2.801312    -0.103658    -1.566498    -91.178802    3.466823    -0.106454    4.532617    7.245429    0.047988    -1.179790    -1.539205    1.005991    -5.138503    -5.744652    13.666447    0.000000    0.000000    0.000000    -5.372543    8.405186    5.610002    1.201878    -8.325926    4.259335    4.085150    -0.955241    -15.552881    0.000000    0.000000    0.000000    
0.083533    0.901520    1.598061    -0.153202    1.122010    -175.563126    0.726477    -2.514644    -0.522434    -1.339895    0.513800    -0.173724    -0.704554    8.182281    0.576912    -2.419593    -2.105485    0.719908    11.487124    -0.658535    -4.006790    -17.676476    -0.848204    -11.070446    0.596742    -7.248445    -0.368522    92.942284    -4.941678    7.373545    -10.786461    -3.461334    3.987205    21.878918    -4.218788    3.032302    -2.833047    -0.126612    -1.500904    -91.627396    3.535248    -0.113557    4.532547    7.240780    0.051248    -1.181236    -1.525912    1.015802    -5.116949    -5.754789    13.632181    0.000000    0.000000    0.000000    -5.372581    8.411798    5.628024    1.202033    -8.328040    4.228074    4.187743    -1.044341    -15.541903    0.000000    0.000000    0.000000    
0.083604    0.901540    1.597934    -0.145636    1.131016    -175.557617    0.713275    -2.534368    -0.525720    -1.318280    0.536057    -0.174608    -0.717448    8.176691    0.569817    -2.390297    -2.093932    0.707016    11.467938    -0.674066    -4.003153    -17.689785    -0.840184    -11.113240    0.697034    -7.079555    -0.247559    93.593224    -4.557916    7.221105    -10.794333    -3.469354    3.997076    21.939762    -4.151398    3.061351    -2.892663    -0.173700    -1.513026    -91.375252    3.422949    -0.170895    4.554352    7.254204    0.095577    -1.195382    -1.520882    0.966400    -5.097700    -5.748680    13.626083    0.000000    0.000000    0.000000    -5.291276    8.419747    5.559423    1.069951    -8.201328    4.194223    3.822761    -1.200262    -15.398335    0.000000    0.000000    0.000000    
0.083592    0.901532    1.597841    -0.147140    1.124187    -175.545761    0.713682    -2.561960    -0.536802    -1.329533    0.550227    -0.178140    -0.761931    8.220590    0.545578    -2.299719    -2.209335    0.660077    11.340001    -0.873570    -4.092993    -17.533829    -0.761706    -10.939482    0.559369    -7.083871    -0.330591    93.697662    -4.579229    7.230163    -10.784821    -3.472119    4.010648    21.971333    -4.118054    3.090872    -2.838898    -0.265173    -1.464753    -91.476059    3.371094    -0.258096    4.552522    7.244850    0.115194    -1.194429    -1.510452    0.926929    -5.113930    -5.780745    13.643819    0.000000    0.000000    0.000000    -5.279083    8.367682    5.549412    1.063597    -8.189954    4.210771    4.129033    -1.062338    -15.475559    0.000000    0.000000    0.000000    
